<?xml version="1.0" standalone="no"?>
<!DOCTYPE svg PUBLIC "-//W3C//DTD SVG 20010904//EN"
 "http://www.w3.org/TR/2001/REC-SVG-20010904/DTD/svg10.dtd">
<svg version="1.0" xmlns="http://www.w3.org/2000/svg"
 width="500.000000pt" height="500.000000pt" viewBox="0 0 500.000000 500.000000"
 preserveAspectRatio="xMidYMid meet">

<g transform="translate(0.000000,500.000000) scale(0.100000,-0.100000)"
fill="#000000" stroke="none">
<path d="M2320 3779 c-108 -13 -282 -64 -375 -109 -245 -119 -467 -334 -583
-567 -33 -65 -44 -120 -62 -303 -5 -63 -13 -128 -16 -144 -4 -20 -3 -27 7 -24
7 2 20 46 30 109 40 239 150 451 325 625 156 155 333 256 546 312 93 24 120
27 283 27 162 0 190 -3 281 -27 323 -84 596 -297 753 -588 l40 -74 19 44 c22
52 20 58 -51 165 -123 186 -290 335 -485 434 -78 40 -213 85 -315 106 -98 19
-297 27 -397 14z"/>
<path d="M1887 3423 c-20 -35 -112 -411 -141 -577 -9 -49 -17 -90 -18 -91 -2
-1 -32 -9 -68 -19 -103 -28 -258 -92 -343 -142 -44 -25 -81 -43 -84 -40 -7 7
33 359 64 556 14 91 28 196 30 233 5 63 4 69 -13 65 -15 -2 -23 -24 -41 -112
-31 -153 -81 -506 -94 -666 -9 -103 -16 -141 -30 -162 -23 -31 -25 -68 -4 -68
13 0 14 -17 7 -122 -4 -68 -7 -168 -7 -223 0 -93 1 -100 20 -100 19 0 21 11
32 175 7 96 16 195 20 220 l8 45 150 0 c144 0 152 -1 206 -28 32 -15 63 -34
69 -42 8 -10 13 -56 14 -133 1 -96 4 -117 16 -117 30 0 44 55 43 165 -2 122
46 477 67 490 11 7 142 29 263 45 l49 6 -6 -63 c-14 -159 -16 -292 -7 -391 12
-123 26 -180 51 -202 16 -14 19 -14 37 2 29 25 47 78 108 312 62 240 104 360
148 427 31 49 32 49 35 20 2 -15 -1 -88 -7 -161 -10 -122 -4 -226 14 -255 13
-22 46 -9 69 28 14 20 50 111 81 202 110 318 206 524 273 583 19 17 20 17 26
-7 8 -31 -6 -162 -39 -361 -56 -341 -112 -992 -88 -1016 23 -23 33 3 33 84 0
80 31 423 51 562 5 38 27 188 49 332 53 350 52 453 -6 461 -69 10 -183 -203
-325 -604 -37 -107 -75 -204 -82 -215 -14 -19 -15 -18 -20 18 -2 21 0 103 5
183 10 152 6 201 -17 220 -52 43 -131 -120 -225 -465 -63 -232 -89 -315 -100
-315 -16 0 -25 115 -24 310 1 262 29 493 89 732 29 114 29 108 10 108 -32 0
-71 -128 -109 -360 l-22 -135 -75 -6 c-64 -6 -128 -16 -216 -35 -18 -3 -23 0
-23 17 0 31 45 246 91 438 21 90 39 172 39 182 0 18 -24 27 -33 12z m-170
-745 c-2 -18 -13 -96 -23 -173 -9 -77 -18 -141 -19 -142 -1 -2 -26 10 -56 26
-74 40 -169 55 -296 47 l-103 -7 0 31 c0 24 9 36 43 61 89 65 370 186 436 188
21 1 23 -2 18 -31z"/>
<path d="M3766 3308 c-73 -74 -156 -249 -266 -558 -79 -224 -86 -240 -101
-240 -8 0 -9 62 -4 203 7 184 6 205 -9 220 -24 23 -30 22 -62 -15 -55 -66
-108 -211 -193 -531 -28 -103 -56 -197 -62 -209 l-12 -22 -10 24 c-16 38 -21
405 -8 538 16 162 47 347 76 463 29 113 30 129 11 129 -31 0 -87 -217 -122
-470 -22 -160 -26 -547 -6 -633 16 -70 43 -103 72 -87 22 12 62 127 110 321
17 68 45 168 62 222 34 109 98 242 113 236 6 -3 8 -38 5 -94 -3 -49 -5 -140
-5 -202 0 -94 3 -115 18 -130 13 -13 21 -15 34 -7 35 22 56 66 127 269 83 237
91 255 153 379 56 112 99 176 120 176 14 0 15 -12 10 -97 -3 -54 -17 -163 -31
-243 -40 -229 -66 -454 -84 -733 -19 -270 -18 -327 3 -327 8 0 14 33 18 113
11 196 46 503 94 812 52 341 60 470 29 504 -26 29 -43 26 -80 -11z"/>
<path d="M3632 2879 c-18 -51 -20 -71 -12 -99 16 -61 31 -252 25 -320 -22
-226 -109 -463 -227 -613 -25 -31 -28 -40 -17 -53 34 -41 45 -37 99 41 28 41
73 121 100 178 l49 102 11 165 c6 91 18 224 26 295 18 144 15 221 -13 309
l-18 59 -23 -64z"/>
<path d="M1260 2301 c0 -61 45 -202 101 -312 41 -84 136 -229 148 -229 13 0
51 31 51 42 0 5 -13 27 -28 47 -81 103 -157 268 -194 417 -20 81 -21 84 -49
84 -28 0 -29 -2 -29 -49z"/>
<path d="M1616 1782 c-3 -5 1 -15 10 -23 13 -11 9 -18 -31 -59 -32 -32 -43
-50 -35 -55 7 -4 29 10 55 35 38 37 46 41 60 30 8 -7 19 -10 22 -6 4 4 -11 25
-34 47 -22 23 -43 37 -47 31z"/>
<path d="M3307 1773 c-4 -3 -5 -21 -1 -38 5 -31 5 -31 -29 -27 -52 6 -54 -15
-2 -22 38 -6 45 -11 45 -29 0 -35 12 -67 21 -61 5 3 7 21 3 40 l-6 34 41 0
c22 0 41 5 41 10 0 6 -10 10 -22 10 -49 0 -68 11 -68 39 0 30 -13 55 -23 44z"/>
<path d="M1805 1539 c-37 -60 -41 -86 -8 -56 25 22 53 5 53 -33 0 -17 5 -30
10 -30 6 0 10 11 10 23 0 16 9 28 25 35 18 9 25 19 25 41 0 28 -16 45 -66 74
-7 4 -27 -18 -49 -54z m93 -16 c4 -28 -25 -37 -54 -18 -23 15 -23 17 -8 41 15
22 19 23 38 11 11 -8 22 -23 24 -34z"/>
<path d="M3077 1584 c-3 -3 6 -24 19 -47 29 -51 30 -73 5 -87 -28 -14 -45 -5
-70 40 -12 22 -28 40 -36 40 -20 0 32 -89 60 -102 17 -7 30 -6 54 6 37 20 40
48 11 106 -20 40 -33 53 -43 44z"/>
<path d="M2097 1389 c-28 -33 -43 -59 -35 -59 8 0 19 5 25 11 18 18 73 1 83
-27 5 -13 15 -24 21 -24 6 0 9 6 6 13 -3 8 -8 44 -12 80 -9 85 -23 86 -88 6z
m67 -28 c-2 -2 -15 0 -30 3 l-27 7 24 25 24 26 6 -29 c3 -15 4 -30 3 -32z"/>
<path d="M2747 1443 c-6 -9 -27 -120 -27 -140 0 -20 17 -15 23 6 6 24 75 41
87 21 4 -7 13 -11 20 -8 7 2 -7 27 -35 63 -47 62 -60 72 -68 58z m32 -85 c-28
-11 -33 -5 -24 29 l7 28 20 -25 19 -24 -22 -8z"/>
<path d="M2390 1407 c0 -16 58 -141 67 -144 6 -2 17 13 26 34 8 21 23 55 31
76 13 29 13 37 3 37 -7 0 -21 -23 -31 -50 -10 -28 -22 -52 -26 -55 -5 -3 -17
19 -26 50 -10 30 -24 55 -31 55 -7 0 -13 -2 -13 -3z"/>
</g>
</svg>
